<svg width="26" height="26" viewBox="0 0 26 26" fill="none" xmlns="http://www.w3.org/2000/svg">
<path d="M17.3333 7.58333C17.3333 7.29602 17.4475 7.02047 17.6506 6.8173C17.8538 6.61414 18.1294 6.5 18.4167 6.5C18.704 6.5 18.9795 6.61414 19.1827 6.8173C19.3859 7.02047 19.5 7.29602 19.5 7.58333C19.5 7.87065 19.3859 8.1462 19.1827 8.34937C18.9795 8.55253 18.704 8.66667 18.4167 8.66667C18.1294 8.66667 17.8538 8.55253 17.6506 8.34937C17.4475 8.1462 17.3333 7.87065 17.3333 7.58333Z" fill="#76402F"/>
<path fill-rule="evenodd" clip-rule="evenodd" d="M13 7.854C11.6352 7.854 10.3264 8.39615 9.36134 9.36118C8.39631 10.3262 7.85416 11.6351 7.85416 12.9998C7.85416 14.3646 8.39631 15.6735 9.36134 16.6385C10.3264 17.6035 11.6352 18.1457 13 18.1457C14.3648 18.1457 15.6736 17.6035 16.6387 16.6385C17.6037 15.6735 18.1458 14.3646 18.1458 12.9998C18.1458 11.6351 17.6037 10.3262 16.6387 9.36118C15.6736 8.39615 14.3648 7.854 13 7.854ZM9.47916 12.9998C9.47916 12.0661 9.85011 11.1705 10.5104 10.5102C11.1707 9.84995 12.0662 9.479 13 9.479C13.9338 9.479 14.8293 9.84995 15.4896 10.5102C16.1499 11.1705 16.5208 12.0661 16.5208 12.9998C16.5208 13.9336 16.1499 14.8292 15.4896 15.4894C14.8293 16.1497 13.9338 16.5207 13 16.5207C12.0662 16.5207 11.1707 16.1497 10.5104 15.4894C9.85011 14.8292 9.47916 13.9336 9.47916 12.9998Z" fill="#76402F"/>
<path fill-rule="evenodd" clip-rule="evenodd" d="M18.6962 3.06916C14.9103 2.64947 11.0897 2.64947 7.30383 3.06916C5.12416 3.31291 3.36375 5.02999 3.10808 7.22049C2.65893 11.0605 2.65893 14.9397 3.10808 18.7797C3.36375 20.9702 5.12308 22.6872 7.30383 22.931C11.0897 23.3502 14.9103 23.3502 18.6962 22.931C20.8758 22.6872 22.6362 20.9702 22.8919 18.7797C23.3411 14.9397 23.3411 11.0605 22.8919 7.22049C22.6362 5.02999 20.8769 3.31291 18.6962 3.06916ZM7.48366 4.68333C11.15 4.27694 14.85 4.27694 18.5163 4.68333C19.9572 4.84583 21.1109 5.98224 21.2788 7.41008C21.7132 11.1241 21.7132 14.8761 21.2788 18.5901C21.192 19.2889 20.8721 19.938 20.3708 20.4326C19.8696 20.9271 19.2162 21.2383 18.5163 21.3157C14.85 21.7222 11.15 21.7222 7.48366 21.3157C6.78377 21.2383 6.13042 20.9271 5.62916 20.4326C5.12791 19.938 4.80802 19.2889 4.72116 18.5901C4.2868 14.8761 4.2868 11.1241 4.72116 7.41008C4.80802 6.71128 5.12791 6.06217 5.62916 5.5676C6.13042 5.07303 6.78377 4.76079 7.48366 4.68333Z" fill="#76402F"/>
</svg>
