<svg width="24" height="24" viewBox="0 0 24 24" fill="none" xmlns="http://www.w3.org/2000/svg">
<path fill-rule="evenodd" clip-rule="evenodd" d="M7.25 10C7.25 8.74022 7.75045 7.53204 8.64124 6.64124C9.53204 5.75045 10.7402 5.25 12 5.25C13.2598 5.25 14.468 5.75045 15.3588 6.64124C16.2496 7.53204 16.75 8.74022 16.75 10C16.75 11.2598 16.2496 12.468 15.3588 13.3588C14.468 14.2496 13.2598 14.75 12 14.75C10.7402 14.75 9.53204 14.2496 8.64124 13.3588C7.75045 12.468 7.25 11.2598 7.25 10ZM12 6.75C11.138 6.75 10.3114 7.09241 9.7019 7.7019C9.09241 8.3114 8.75 9.13805 8.75 10C8.75 10.862 9.09241 11.6886 9.7019 12.2981C10.3114 12.9076 11.138 13.25 12 13.25C12.862 13.25 13.6886 12.9076 14.2981 12.2981C14.9076 11.6886 15.25 10.862 15.25 10C15.25 9.13805 14.9076 8.3114 14.2981 7.7019C13.6886 7.09241 12.862 6.75 12 6.75Z" fill="#76402F"/>
<path fill-rule="evenodd" clip-rule="evenodd" d="M3.524 8.857C3.69493 6.7838 4.63923 4.85069 6.16942 3.44147C7.6996 2.03226 9.70377 1.24999 11.784 1.25H12.216C14.2962 1.24999 16.3004 2.03226 17.8306 3.44147C19.3608 4.85069 20.3051 6.7838 20.476 8.857C20.6662 11.1663 19.9528 13.4593 18.486 15.253L13.693 21.114C13.4879 21.3648 13.2296 21.567 12.9368 21.7057C12.644 21.8445 12.324 21.9165 12 21.9165C11.676 21.9165 11.356 21.8445 11.0632 21.7057C10.7704 21.567 10.5121 21.3648 10.307 21.114L5.514 15.253C4.04712 13.4593 3.33369 11.1663 3.524 8.857ZM11.784 2.75C10.0805 2.75026 8.43934 3.39103 7.18632 4.54512C5.93331 5.69921 5.16004 7.28225 5.02 8.98C4.8616 10.9019 5.45529 12.8102 6.676 14.303L11.469 20.165C11.5334 20.2439 11.6146 20.3074 11.7066 20.351C11.7986 20.3947 11.8992 20.4173 12.001 20.4173C12.1028 20.4173 12.2034 20.3947 12.2954 20.351C12.3874 20.3074 12.4686 20.2439 12.533 20.165L17.326 14.303C18.546 12.8099 19.139 10.9016 18.98 8.98C18.84 7.28208 18.0665 5.6989 16.8133 4.54478C15.5601 3.39066 13.9187 2.75001 12.215 2.75H11.783H11.784Z" fill="#76402F"/>
</svg>
