<svg width="27" height="26" viewBox="0 0 27 26" fill="none" xmlns="http://www.w3.org/2000/svg">
<path d="M8.08329 19.5C7.50866 19.5 6.95756 19.7283 6.55123 20.1346C6.1449 20.5409 5.91663 21.092 5.91663 21.6667C5.91663 22.2413 6.1449 22.7924 6.55123 23.1987C6.95756 23.605 7.50866 23.8333 8.08329 23.8333C8.65793 23.8333 9.20903 23.605 9.61536 23.1987C10.0217 22.7924 10.25 22.2413 10.25 21.6667C10.25 20.4642 9.28579 19.5 8.08329 19.5ZM25.4166 2.16666H21.8741L20.8558 4.33332H4.83329C4.54598 4.33332 4.27043 4.44746 4.06726 4.65062C3.8641 4.85379 3.74996 5.12934 3.74996 5.41666C3.74996 5.60082 3.80413 5.78499 3.87996 5.95832L7.75829 12.9675C8.12663 13.6283 8.84163 14.0833 9.65413 14.0833H17.725L18.7 15.8492L18.7325 15.9792C18.7325 16.051 18.7039 16.1199 18.6531 16.1707C18.6023 16.2215 18.5335 16.25 18.4616 16.25H5.91663V18.4167H18.9166C19.4913 18.4167 20.0424 18.1884 20.4487 17.7821C20.855 17.3757 21.0833 16.8246 21.0833 16.25C21.0833 15.8708 20.9858 15.5133 20.8233 15.21L19.35 12.5558L23.25 4.33332H25.4166V2.16666ZM18.9166 19.5C18.342 19.5 17.7909 19.7283 17.3846 20.1346C16.9782 20.5409 16.75 21.092 16.75 21.6667C16.75 22.2413 16.9782 22.7924 17.3846 23.1987C17.7909 23.605 18.342 23.8333 18.9166 23.8333C19.4913 23.8333 20.0424 23.605 20.4487 23.1987C20.855 22.7924 21.0833 22.2413 21.0833 21.6667C21.0833 20.4642 20.1191 19.5 18.9166 19.5ZM9.16663 11.9167L6.15496 6.49999H19.8483L17.2916 11.9167H9.16663Z" fill="white"/>
</svg>
