<svg width="24" height="24" viewBox="0 0 24 24" fill="none" xmlns="http://www.w3.org/2000/svg">
<path d="M16.3862 12.952L16.3862 12.952L20.814 14.9363C20.8142 14.9363 20.8144 14.9364 20.8145 14.9365C21.0931 15.0581 21.3251 15.2664 21.4759 15.5304C21.6268 15.7945 21.6883 16.1003 21.6515 16.4022L21.6513 16.4032C21.4869 17.6523 20.8734 18.7988 19.9254 19.6286C18.9774 20.4584 17.7597 20.9147 16.4998 20.9123M16.3862 12.952L8.90738 11.3754C8.90738 11.3667 8.90883 11.358 8.91166 11.3498M16.3862 12.952L16.3847 12.9513C16.1687 12.8588 15.9331 12.8216 15.6992 12.8431C15.4655 12.8646 15.2409 12.9439 15.0456 13.0739M16.3862 12.952L8.91544 11.4102C9.62632 12.8568 11.1506 14.3721 12.6179 15.0807C12.6285 15.0854 12.6399 15.0876 12.6515 15.0872C12.6606 15.0869 12.6695 15.0849 12.6778 15.0815L14.9822 13.1216C14.9823 13.1214 14.9824 13.1213 14.9826 13.1212C15.0024 13.104 15.0235 13.0882 15.0456 13.0739M16.4998 20.9123L16.5 20.8123V20.9123C16.4999 20.9123 16.4999 20.9123 16.4998 20.9123ZM16.4998 20.9123C9.10408 20.9122 3.08756 14.8957 3.0875 7.49991C3.08491 6.24001 3.54115 5.02226 4.37097 4.07423C5.20081 3.12617 6.34746 2.5127 7.59666 2.34848L7.5976 2.34835L7.5976 2.34836C7.90096 2.3114 8.20813 2.37383 8.473 2.52628C8.73766 2.6786 8.94582 2.91258 9.0663 3.19315M9.0663 3.19315L9.06603 3.19254L8.97469 3.23325L9.0666 3.19384C9.0665 3.19361 9.0664 3.19338 9.0663 3.19315ZM9.0663 3.19315L11.0367 7.61379L11.037 7.6145C11.1308 7.8295 11.1696 8.06448 11.1499 8.29822C11.1301 8.53179 11.0526 8.75678 10.9243 8.9529M10.9243 8.9529C10.9244 8.95273 10.9245 8.95255 10.9246 8.95238L10.8403 8.89856L10.924 8.95335C10.9241 8.9532 10.9242 8.95305 10.9243 8.9529ZM10.9243 8.9529C10.9102 8.97488 10.8949 8.99602 10.8784 9.01622L10.8774 9.01739L10.8774 9.01738L8.91166 11.3498M8.91166 11.3498C8.91273 11.3467 8.91399 11.3436 8.91544 11.3407L8.82563 11.2967L8.90209 11.3611L8.91166 11.3498ZM15.0456 13.0739C15.0458 13.0738 15.0461 13.0736 15.0463 13.0735L15.1003 13.1576L15.0448 13.0744C15.0451 13.0743 15.0453 13.0741 15.0456 13.0739ZM16.5003 19.5873H16.5C9.83523 19.5873 4.4125 14.1646 4.4125 7.49981L4.4125 7.49948C4.40945 6.56184 4.74788 5.65516 5.36456 4.94884C5.97981 4.24417 6.83001 3.78702 7.75697 3.66231H7.77077C7.78813 3.66278 7.80497 3.66842 7.81913 3.6785C7.83349 3.68872 7.84443 3.70305 7.85051 3.7196L7.85029 3.71969L7.85311 3.726L9.83124 8.14256L9.83123 8.14256L9.83163 8.14343C9.8369 8.15489 9.83963 8.16736 9.83963 8.17997C9.83963 8.18888 9.83826 8.19772 9.8356 8.20619L7.86764 10.5424C7.85004 10.5625 7.83394 10.5838 7.81948 10.6063C7.6862 10.8097 7.60772 11.0441 7.59164 11.2868C7.57555 11.5295 7.62241 11.7723 7.72766 11.9915L7.72796 11.9921C8.56946 13.715 10.3015 15.4336 12.0428 16.2749L12.0434 16.2752C12.2639 16.3798 12.5078 16.4256 12.7513 16.4079C12.9948 16.3902 13.2296 16.3097 13.4327 16.1743L13.4337 16.1736C13.4534 16.1601 13.4738 16.1451 13.4937 16.1285L13.4945 16.1278L15.7985 14.1674C15.8065 14.1641 15.815 14.1622 15.8237 14.1616C15.8345 14.161 15.8453 14.1625 15.8555 14.1661L20.2822 16.1495L20.2822 16.1495L20.2839 16.1503C20.3008 16.1574 20.315 16.1698 20.3245 16.1855C20.3337 16.2006 20.338 16.2181 20.337 16.2356C20.2136 17.1644 19.7567 18.0166 19.0512 18.6333C18.3451 19.2507 17.4383 19.5898 16.5003 19.5873Z" fill="#76402F" stroke="#76402F" stroke-width="0.2"/>
</svg>
