<svg width="21" height="22" viewBox="0 0 21 22" fill="none" xmlns="http://www.w3.org/2000/svg">
<path d="M7.475 11.5647V11.5647C7.47496 11.6901 7.43936 11.8129 7.37232 11.9188C7.30528 12.0247 7.20955 12.1095 7.09627 12.1632M7.475 11.5647L7.05344 12.0728M7.475 11.5647V7.5625V7.5624M7.475 11.5647V7.5624M7.09627 12.1632L7.05344 12.0728M7.09627 12.1632C7.09628 12.1632 7.09629 12.1632 7.0963 12.1632L7.05344 12.0728M7.09627 12.1632C6.77903 12.3137 6.50798 12.5466 6.31139 12.8375C6.1148 13.1285 5.99988 13.4668 5.9786 13.8173C5.95733 14.1679 6.03049 14.5176 6.19046 14.8302C6.35042 15.1428 6.59133 15.4068 6.88805 15.5946C7.18477 15.7823 7.52645 15.8871 7.87743 15.8978C8.22841 15.9086 8.57585 15.8249 8.88351 15.6557C9.19117 15.4864 9.44777 15.2377 9.62656 14.9355C9.80536 14.6332 9.89978 14.2886 9.9 13.9374M7.05344 12.0728C6.72002 12.231 6.43515 12.4757 6.22854 12.7815C6.02192 13.0873 5.90114 13.4429 5.87879 13.8113C5.85643 14.1797 5.93332 14.5473 6.10144 14.8758C6.26955 15.2043 6.52273 15.4817 6.83458 15.6791C7.14642 15.8764 7.5055 15.9865 7.87437 15.9978C8.24324 16.0091 8.60838 15.9212 8.93171 15.7433C9.25505 15.5654 9.52473 15.304 9.71263 14.9864C9.90053 14.6688 9.99977 14.3065 10 13.9375M9.9 13.9374V13.9375H10M9.9 13.9374V1.5625C9.9 1.38679 9.9698 1.21828 10.094 1.09404C10.2183 0.969799 10.3868 0.9 10.5625 0.9H14.3125C14.4882 0.9 14.6567 0.969799 14.781 1.09404C14.9052 1.21826 14.975 1.38672 14.975 1.56238M9.9 13.9374L10 13.9375M10 13.9375L14.975 1.56238M14.975 1.56238C14.9765 2.77865 15.4603 3.94468 16.3203 4.80471M14.975 1.56238L16.3203 4.80471M7.475 7.5624C7.4749 7.46611 7.45382 7.371 7.41321 7.28369C7.37261 7.19638 7.31346 7.11898 7.23989 7.05686C7.16631 6.99474 7.08008 6.94941 6.9872 6.92402C6.89432 6.89863 6.79703 6.89379 6.70208 6.90984L6.70208 6.90983M7.475 7.5624L6.70208 6.90983M6.70208 6.90983L6.70124 6.90998M6.70208 6.90983L6.70124 6.90998M6.70124 6.90998C3.38973 7.49901 0.9 10.52 0.9 13.9375C0.9 15.804 1.64145 17.594 2.96124 18.9138C4.28102 20.2335 6.07104 20.975 7.9375 20.975C9.80396 20.975 11.594 20.2335 12.9138 18.9138C14.2336 17.594 14.975 15.804 14.975 13.9375V10.0692M6.70124 6.90998L14.875 10.0143M18.9 9.87397C17.3855 9.7576 15.9317 9.22556 14.6992 8.33549L14.699 8.33534C14.5998 8.26416 14.483 8.22173 14.3613 8.21274C14.2396 8.20375 14.1178 8.22855 14.0093 8.2844C13.9008 8.34024 13.8098 8.42497 13.7464 8.52924C13.6831 8.63342 13.6497 8.75307 13.65 8.875C13.65 8.87509 13.65 8.87518 13.65 8.87528M18.9 9.87397L13.65 8.87528M18.9 9.87397V7.43776C17.5706 7.28634 16.3307 6.68893 15.3834 5.7416C14.4361 4.79427 13.8387 3.55435 13.6872 2.225H11.225V13.9375V13.9375C11.2249 14.5098 11.0754 15.0721 10.7913 15.5689C10.5073 16.0657 10.0984 16.4797 9.60526 16.77C9.11209 17.0604 8.55168 17.2169 7.97946 17.2242C7.40723 17.2315 6.84301 17.0893 6.34259 16.8117C5.84218 16.534 5.4229 16.1306 5.12623 15.6412C4.82957 15.1518 4.66579 14.5935 4.65109 14.0214C4.63639 13.4493 4.77128 12.8833 5.04242 12.3794C5.30475 11.8918 5.68583 11.4786 6.15 11.1779V8.41429C3.86606 9.18433 2.225 11.4294 2.225 13.9375C2.225 15.4525 2.82685 16.9055 3.89815 17.9768C4.96945 19.0481 6.42245 19.65 7.9375 19.65C9.45255 19.65 10.9055 19.0481 11.9768 17.9768C13.0481 16.9055 13.65 15.4525 13.65 13.9375L13.65 8.87528M18.9 9.87397L13.65 8.87528M16.3203 4.80471C17.1803 5.66474 18.3464 6.14854 19.5626 6.15C19.7383 6.15003 19.9067 6.21983 20.031 6.34404C20.1552 6.46829 20.225 6.63679 20.225 6.8125V10.5625C20.225 10.7382 20.1552 10.9067 20.031 11.031C19.9067 11.1552 19.7382 11.225 19.5625 11.225M16.3203 4.80471L19.5625 11.125M19.5625 11.225V11.125M19.5625 11.225C19.5626 11.225 19.5627 11.225 19.5627 11.225L19.5625 11.125M19.5625 11.225C17.9599 11.2287 16.3829 10.8309 14.975 10.0692M19.5625 11.125C17.9585 11.1287 16.3803 10.726 14.975 9.95531V10.0692M14.975 10.0692C14.9416 10.0511 14.9082 10.0328 14.875 10.0143M14.875 10.0143V9.89969V10.0143Z" fill="#76402F" stroke="#76402F" stroke-width="0.2"/>
</svg>
